<mxfile host="app.diagrams.net" modified="2021-02-22T06:11:25.299Z" agent="5.0 (Windows NT 10.0; Win64; x64) AppleWebKit/537.36 (KHTML, like Gecko) Chrome/88.0.4324.182 Safari/537.36" etag="0dgx2UnVZOIdr5gdSWSg" version="14.4.2" type="github">
  <diagram name="Page-1" id="2c0d36ab-eaac-3732-788b-9136903baeff">
    <mxGraphModel dx="2031" dy="1103" grid="1" gridSize="10" guides="1" tooltips="1" connect="1" arrows="1" fold="1" page="1" pageScale="1.5" pageWidth="1169" pageHeight="827" background="#ffffff" math="0" shadow="0">
      <root>
        <mxCell id="0" />
        <mxCell id="1" parent="0" />
        <mxCell id="123" value="" style="strokeColor=none;opacity=30;verticalAlign=bottom;fillColor=#12AAB5;" parent="1" vertex="1">
          <mxGeometry x="850" y="150" width="423" height="100" as="geometry" />
        </mxCell>
        <mxCell id="117" value="" style="fillColor=#F2931E;strokeColor=none;opacity=30;" parent="1" vertex="1">
          <mxGeometry x="850" y="270" width="630" height="700" as="geometry" />
        </mxCell>
        <mxCell id="109" value="" style="fillColor=#12AAB5;strokeColor=none;opacity=30;" parent="1" vertex="1">
          <mxGeometry x="450" y="270" width="400" height="700" as="geometry" />
        </mxCell>
        <mxCell id="mNOALvo1SZKqBy8rrMEh-128" value="" style="edgeStyle=orthogonalEdgeStyle;rounded=0;orthogonalLoop=1;jettySize=auto;html=1;verticalAlign=middle;" parent="1" source="2" target="mNOALvo1SZKqBy8rrMEh-123" edge="1">
          <mxGeometry relative="1" as="geometry" />
        </mxCell>
        <mxCell id="2" value="Object&#xa;(Java.lang)" style="rounded=1;fillColor=#23445D;gradientColor=none;strokeColor=none;fontColor=#FFFFFF;fontStyle=1;fontFamily=Tahoma;fontSize=14" parent="1" vertex="1">
          <mxGeometry x="870" y="20" width="190" height="80" as="geometry" />
        </mxCell>
        <mxCell id="4" value="Error" style="rounded=1;fillColor=#23445D;gradientColor=none;strokeColor=none;fontColor=#FFFFFF;fontStyle=1;fontFamily=Tahoma;fontSize=14" parent="1" vertex="1">
          <mxGeometry x="1222.1099999999997" y="290" width="190" height="80" as="geometry" />
        </mxCell>
        <mxCell id="mNOALvo1SZKqBy8rrMEh-156" style="edgeStyle=orthogonalEdgeStyle;rounded=0;orthogonalLoop=1;jettySize=auto;html=1;strokeWidth=2;entryX=0;entryY=0.5;entryDx=0;entryDy=0;" parent="1" source="12" target="25" edge="1">
          <mxGeometry relative="1" as="geometry">
            <mxPoint x="437.86" y="470" as="targetPoint" />
            <Array as="points">
              <mxPoint x="722.86" y="410" />
              <mxPoint x="477.86" y="410" />
              <mxPoint x="477.86" y="470" />
            </Array>
          </mxGeometry>
        </mxCell>
        <mxCell id="mNOALvo1SZKqBy8rrMEh-157" style="edgeStyle=orthogonalEdgeStyle;rounded=0;orthogonalLoop=1;jettySize=auto;html=1;entryX=0;entryY=0.5;entryDx=0;entryDy=0;strokeWidth=2;" parent="1" source="12" target="26" edge="1">
          <mxGeometry relative="1" as="geometry">
            <Array as="points">
              <mxPoint x="722.86" y="410" />
              <mxPoint x="477.86" y="410" />
              <mxPoint x="477.86" y="560" />
            </Array>
          </mxGeometry>
        </mxCell>
        <mxCell id="mNOALvo1SZKqBy8rrMEh-158" style="edgeStyle=orthogonalEdgeStyle;rounded=0;orthogonalLoop=1;jettySize=auto;html=1;entryX=0;entryY=0.5;entryDx=0;entryDy=0;strokeWidth=2;" parent="1" source="12" target="27" edge="1">
          <mxGeometry relative="1" as="geometry">
            <Array as="points">
              <mxPoint x="722.86" y="410" />
              <mxPoint x="477.86" y="410" />
              <mxPoint x="477.86" y="650" />
            </Array>
          </mxGeometry>
        </mxCell>
        <mxCell id="12" value="Exception" style="rounded=1;fillColor=#23445D;gradientColor=none;strokeColor=none;fontColor=#FFFFFF;fontStyle=1;fontFamily=Tahoma;fontSize=14" parent="1" vertex="1">
          <mxGeometry x="627.8599999999999" y="290" width="190" height="80" as="geometry" />
        </mxCell>
        <mxCell id="25" value="CloneNotSupportedException" style="rounded=1;fillColor=#23445D;gradientColor=none;strokeColor=none;fontColor=#FFFFFF;fontStyle=1;fontFamily=Tahoma;fontSize=14" parent="1" vertex="1">
          <mxGeometry x="497.85999999999996" y="440" width="250" height="60" as="geometry" />
        </mxCell>
        <mxCell id="26" value="InterruptedException" style="rounded=1;fillColor=#23445D;gradientColor=none;strokeColor=none;fontColor=#FFFFFF;fontStyle=1;fontFamily=Tahoma;fontSize=14" parent="1" vertex="1">
          <mxGeometry x="497.85999999999996" y="530" width="200" height="60" as="geometry" />
        </mxCell>
        <mxCell id="27" value="ReflectiveOperationException" style="rounded=1;fillColor=#23445D;gradientColor=none;strokeColor=none;fontColor=#FFFFFF;fontStyle=1;fontFamily=Tahoma;fontSize=14" parent="1" vertex="1">
          <mxGeometry x="497.85999999999996" y="620" width="250" height="60" as="geometry" />
        </mxCell>
        <mxCell id="33" value="RuntimeException" style="rounded=1;fillColor=#23445D;gradientColor=none;strokeColor=none;fontColor=#FFFFFF;fontStyle=1;fontFamily=Tahoma;fontSize=14" parent="1" vertex="1">
          <mxGeometry x="910" y="440" width="160" height="60" as="geometry" />
        </mxCell>
        <mxCell id="34" value="ArithmeticException" style="rounded=1;fillColor=#23445D;gradientColor=none;strokeColor=none;fontColor=#FFFFFF;fontStyle=1;fontFamily=Tahoma;fontSize=14" parent="1" vertex="1">
          <mxGeometry x="910" y="530" width="180" height="60" as="geometry" />
        </mxCell>
        <mxCell id="35" value="IllegalArgumentException" style="rounded=1;fillColor=#23445D;gradientColor=none;strokeColor=none;fontColor=#FFFFFF;fontStyle=1;fontFamily=Tahoma;fontSize=14" parent="1" vertex="1">
          <mxGeometry x="910" y="620" width="220" height="60" as="geometry" />
        </mxCell>
        <mxCell id="36" value="IndexOutOfBoundsException" style="rounded=1;fillColor=#23445D;gradientColor=none;strokeColor=none;fontColor=#FFFFFF;fontStyle=1;fontFamily=Tahoma;fontSize=14" parent="1" vertex="1">
          <mxGeometry x="910" y="710" width="240" height="60" as="geometry" />
        </mxCell>
        <mxCell id="37" value="NullPointerException" style="rounded=1;fillColor=#23445D;gradientColor=none;strokeColor=none;fontColor=#FFFFFF;fontStyle=1;fontFamily=Tahoma;fontSize=14" parent="1" vertex="1">
          <mxGeometry x="910" y="800" width="190" height="60" as="geometry" />
        </mxCell>
        <mxCell id="44" value="ThreadDeath" style="rounded=1;fillColor=#23445D;gradientColor=none;strokeColor=none;fontColor=#FFFFFF;fontStyle=1;fontFamily=Tahoma;fontSize=14" parent="1" vertex="1">
          <mxGeometry x="1232.11" y="600" width="160" height="60" as="geometry" />
        </mxCell>
        <mxCell id="48" value="LinkageError" style="rounded=1;fillColor=#23445D;gradientColor=none;strokeColor=none;fontColor=#FFFFFF;fontStyle=1;fontFamily=Tahoma;fontSize=14" parent="1" vertex="1">
          <mxGeometry x="1232.11" y="520" width="160" height="60" as="geometry" />
        </mxCell>
        <mxCell id="52" value="AssertionError" style="rounded=1;fillColor=#23445D;gradientColor=none;strokeColor=none;fontColor=#FFFFFF;fontStyle=1;fontFamily=Tahoma;fontSize=14" parent="1" vertex="1">
          <mxGeometry x="1232.11" y="440" width="160" height="60" as="geometry" />
        </mxCell>
        <mxCell id="76" value="" style="edgeStyle=elbowEdgeStyle;elbow=horizontal;strokeWidth=2;rounded=0" parent="1" source="33" target="34" edge="1">
          <mxGeometry x="120" y="120" width="100" height="100" as="geometry">
            <mxPoint x="120" y="220" as="sourcePoint" />
            <mxPoint x="220" y="120" as="targetPoint" />
            <Array as="points">
              <mxPoint x="890" y="520" />
            </Array>
          </mxGeometry>
        </mxCell>
        <mxCell id="77" value="" style="edgeStyle=elbowEdgeStyle;elbow=horizontal;strokeWidth=2;rounded=0" parent="1" source="33" target="35" edge="1">
          <mxGeometry x="120" y="120" width="100" height="100" as="geometry">
            <mxPoint x="120" y="220" as="sourcePoint" />
            <mxPoint x="220" y="120" as="targetPoint" />
            <Array as="points">
              <mxPoint x="890" y="560" />
            </Array>
          </mxGeometry>
        </mxCell>
        <mxCell id="78" value="" style="edgeStyle=elbowEdgeStyle;elbow=horizontal;strokeWidth=2;rounded=0" parent="1" source="33" edge="1">
          <mxGeometry x="120" y="120" width="100" height="100" as="geometry">
            <mxPoint x="120" y="220" as="sourcePoint" />
            <mxPoint x="910.0000000000001" y="740" as="targetPoint" />
            <Array as="points">
              <mxPoint x="890" y="610" />
            </Array>
          </mxGeometry>
        </mxCell>
        <mxCell id="79" value="" style="edgeStyle=elbowEdgeStyle;elbow=horizontal;strokeWidth=2;rounded=0" parent="1" source="33" target="37" edge="1">
          <mxGeometry x="120" y="120" width="100" height="100" as="geometry">
            <mxPoint x="120" y="220" as="sourcePoint" />
            <mxPoint x="220" y="120" as="targetPoint" />
            <Array as="points">
              <mxPoint x="890" y="650" />
            </Array>
          </mxGeometry>
        </mxCell>
        <mxCell id="102" value="" style="edgeStyle=elbowEdgeStyle;elbow=vertical;strokeWidth=2;rounded=0;exitX=0.5;exitY=1;exitDx=0;exitDy=0;" parent="1" source="12" target="33" edge="1">
          <mxGeometry x="-11.5" y="135.5" width="100" height="100" as="geometry">
            <mxPoint x="747.8599999999997" y="370" as="sourcePoint" />
            <mxPoint x="88.5" y="135.5" as="targetPoint" />
            <Array as="points">
              <mxPoint x="748" y="410" />
              <mxPoint x="765" y="410" />
              <mxPoint x="860" y="410" />
            </Array>
          </mxGeometry>
        </mxCell>
        <mxCell id="104" value="" style="edgeStyle=elbowEdgeStyle;elbow=vertical;strokeWidth=2;rounded=0;entryX=1;entryY=0.5;entryDx=0;entryDy=0;" parent="1" source="4" target="48" edge="1">
          <mxGeometry x="-337.89" y="135.5" width="100" height="100" as="geometry">
            <mxPoint x="-337.89" y="235.5" as="sourcePoint" />
            <mxPoint x="-237.89" y="135.5" as="targetPoint" />
            <Array as="points">
              <mxPoint x="1452.11" y="520" />
            </Array>
          </mxGeometry>
        </mxCell>
        <mxCell id="105" value="" style="edgeStyle=elbowEdgeStyle;elbow=vertical;strokeWidth=2;rounded=0" parent="1" source="4" target="44" edge="1">
          <mxGeometry x="-337.89" y="135.5" width="100" height="100" as="geometry">
            <mxPoint x="-337.89" y="235.5" as="sourcePoint" />
            <mxPoint x="-237.89" y="135.5" as="targetPoint" />
            <Array as="points">
              <mxPoint x="1452.11" y="410" />
            </Array>
          </mxGeometry>
        </mxCell>
        <mxCell id="106" value="" style="edgeStyle=elbowEdgeStyle;elbow=vertical;strokeWidth=2;rounded=0;entryX=1;entryY=0.5;entryDx=0;entryDy=0;" parent="1" source="4" target="52" edge="1">
          <mxGeometry x="-337.89" y="135.5" width="100" height="100" as="geometry">
            <mxPoint x="-337.89" y="235.5" as="sourcePoint" />
            <mxPoint x="-237.89" y="135.5" as="targetPoint" />
            <Array as="points">
              <mxPoint x="1452.11" y="400" />
            </Array>
          </mxGeometry>
        </mxCell>
        <mxCell id="mNOALvo1SZKqBy8rrMEh-129" value="" style="edgeStyle=orthogonalEdgeStyle;rounded=0;orthogonalLoop=1;jettySize=auto;html=1;entryX=0;entryY=0.5;entryDx=0;entryDy=0;strokeWidth=2;" parent="1" target="4" edge="1">
          <mxGeometry relative="1" as="geometry">
            <Array as="points">
              <mxPoint x="962.86" y="330" />
            </Array>
            <mxPoint x="962.8600000000005" y="170" as="sourcePoint" />
          </mxGeometry>
        </mxCell>
        <mxCell id="mNOALvo1SZKqBy8rrMEh-130" value="" style="edgeStyle=orthogonalEdgeStyle;rounded=0;orthogonalLoop=1;jettySize=auto;html=1;entryX=1;entryY=0.5;entryDx=0;entryDy=0;strokeWidth=2;exitX=0.5;exitY=1;exitDx=0;exitDy=0;" parent="1" source="mNOALvo1SZKqBy8rrMEh-123" target="12" edge="1">
          <mxGeometry relative="1" as="geometry">
            <mxPoint x="747.86" y="260" as="targetPoint" />
            <Array as="points">
              <mxPoint x="963" y="240" />
              <mxPoint x="963" y="330" />
            </Array>
            <mxPoint x="962.8600000000005" y="170" as="sourcePoint" />
          </mxGeometry>
        </mxCell>
        <mxCell id="mNOALvo1SZKqBy8rrMEh-123" value="Throwable" style="rounded=1;fillColor=#23445D;gradientColor=none;strokeColor=none;fontColor=#FFFFFF;fontStyle=1;fontFamily=Tahoma;fontSize=14;verticalAlign=middle;" parent="1" vertex="1">
          <mxGeometry x="870" y="160" width="190" height="80" as="geometry" />
        </mxCell>
        <mxCell id="mNOALvo1SZKqBy8rrMEh-134" value="VirtualMachineError" style="rounded=1;fillColor=#23445D;gradientColor=none;strokeColor=none;fontColor=#FFFFFF;fontStyle=1;fontFamily=Tahoma;fontSize=14" parent="1" vertex="1">
          <mxGeometry x="1217.86" y="680" width="188.5" height="60" as="geometry" />
        </mxCell>
        <mxCell id="mNOALvo1SZKqBy8rrMEh-135" value="" style="edgeStyle=elbowEdgeStyle;elbow=vertical;strokeWidth=2;rounded=0;exitX=1;exitY=0.5;exitDx=0;exitDy=0;" parent="1" source="4" target="mNOALvo1SZKqBy8rrMEh-134" edge="1">
          <mxGeometry x="-337.89" y="225.5" width="100" height="100" as="geometry">
            <mxPoint x="1412.1099999999994" y="420" as="sourcePoint" />
            <mxPoint x="-237.89" y="225.5" as="targetPoint" />
            <Array as="points">
              <mxPoint x="1452.11" y="500" />
            </Array>
          </mxGeometry>
        </mxCell>
        <mxCell id="dfQPDdZPbo5exxmUcBjd-123" value="..." style="rounded=1;fillColor=#23445D;gradientColor=none;strokeColor=none;fontColor=#FFFFFF;fontStyle=1;fontFamily=Tahoma;fontSize=14" vertex="1" parent="1">
          <mxGeometry x="910" y="890" width="130" height="60" as="geometry" />
        </mxCell>
        <mxCell id="dfQPDdZPbo5exxmUcBjd-124" value="" style="edgeStyle=elbowEdgeStyle;elbow=horizontal;strokeWidth=2;rounded=0" edge="1" target="dfQPDdZPbo5exxmUcBjd-123" parent="1">
          <mxGeometry x="120" y="210" width="100" height="100" as="geometry">
            <mxPoint x="910" y="470" as="sourcePoint" />
            <mxPoint x="220" y="210" as="targetPoint" />
            <Array as="points">
              <mxPoint x="890" y="470" />
              <mxPoint x="890" y="740" />
            </Array>
          </mxGeometry>
        </mxCell>
        <mxCell id="dfQPDdZPbo5exxmUcBjd-126" value="372DEV" style="text;html=1;strokeColor=none;fillColor=none;align=center;verticalAlign=middle;whiteSpace=wrap;rounded=0;fontStyle=1" vertex="1" parent="1">
          <mxGeometry x="1117.86" y="390" width="82.14" height="30" as="geometry" />
        </mxCell>
        <mxCell id="dfQPDdZPbo5exxmUcBjd-127" value="Checked Exception" style="text;html=1;align=center;verticalAlign=middle;whiteSpace=wrap;rounded=0;strokeWidth=2;fontSize=22;fontStyle=1;fontColor=#2B4787;" vertex="1" parent="1">
          <mxGeometry x="520" y="820" width="240" height="60" as="geometry" />
        </mxCell>
        <mxCell id="dfQPDdZPbo5exxmUcBjd-128" value="Unchecked Exception" style="text;html=1;align=center;verticalAlign=middle;whiteSpace=wrap;rounded=0;strokeWidth=2;fontSize=22;fontStyle=1;fontColor=#87652A;" vertex="1" parent="1">
          <mxGeometry x="1192.1100000000001" y="820" width="240" height="60" as="geometry" />
        </mxCell>
        <mxCell id="dfQPDdZPbo5exxmUcBjd-129" value="&lt;span style=&quot;color: rgb(43 , 71 , 135)&quot;&gt;Checked Exception&lt;/span&gt;" style="text;html=1;align=center;verticalAlign=middle;whiteSpace=wrap;rounded=0;strokeWidth=2;fontSize=22;fontStyle=1;fontColor=#87652A;" vertex="1" parent="1">
          <mxGeometry x="1075" y="170" width="185" height="60" as="geometry" />
        </mxCell>
      </root>
    </mxGraphModel>
  </diagram>
</mxfile>
